<mxfile host="app.diagrams.net" modified="2023-06-15T04:27:27.219Z" agent="Mozilla/5.0 (Windows NT 10.0; Win64; x64) AppleWebKit/537.36 (KHTML, like Gecko) Chrome/114.0.0.0 Safari/537.36" etag="APnYVTGBAGSbfuhWVmpu" version="21.3.2" type="github">
  <diagram name="Page-1" id="2evBCyFF-AEQQNd78H0G">
    <mxGraphModel dx="1434" dy="788" grid="1" gridSize="10" guides="1" tooltips="1" connect="1" arrows="1" fold="1" page="1" pageScale="1" pageWidth="850" pageHeight="1100" math="0" shadow="0">
      <root>
        <mxCell id="0" />
        <mxCell id="1" parent="0" />
        <mxCell id="ui1ufBkpN4PQpi_GGF_j-3" style="edgeStyle=orthogonalEdgeStyle;rounded=0;orthogonalLoop=1;jettySize=auto;html=1;exitX=0;exitY=0.5;exitDx=0;exitDy=0;" edge="1" parent="1" source="ui1ufBkpN4PQpi_GGF_j-1" target="ui1ufBkpN4PQpi_GGF_j-2">
          <mxGeometry relative="1" as="geometry" />
        </mxCell>
        <mxCell id="ui1ufBkpN4PQpi_GGF_j-4" value="QSPI" style="edgeLabel;html=1;align=center;verticalAlign=middle;resizable=0;points=[];" vertex="1" connectable="0" parent="ui1ufBkpN4PQpi_GGF_j-3">
          <mxGeometry x="-0.2121" y="5" relative="1" as="geometry">
            <mxPoint x="-10" y="-5" as="offset" />
          </mxGeometry>
        </mxCell>
        <mxCell id="ui1ufBkpN4PQpi_GGF_j-38" style="edgeStyle=orthogonalEdgeStyle;rounded=0;orthogonalLoop=1;jettySize=auto;html=1;exitX=0;exitY=0.25;exitDx=0;exitDy=0;entryX=0.5;entryY=1;entryDx=0;entryDy=0;" edge="1" parent="1" source="ui1ufBkpN4PQpi_GGF_j-1" target="ui1ufBkpN4PQpi_GGF_j-36">
          <mxGeometry relative="1" as="geometry" />
        </mxCell>
        <mxCell id="ui1ufBkpN4PQpi_GGF_j-39" value="Digital" style="edgeLabel;html=1;align=center;verticalAlign=middle;resizable=0;points=[];" vertex="1" connectable="0" parent="ui1ufBkpN4PQpi_GGF_j-38">
          <mxGeometry x="-0.3714" y="1" relative="1" as="geometry">
            <mxPoint x="12" y="-1" as="offset" />
          </mxGeometry>
        </mxCell>
        <mxCell id="ui1ufBkpN4PQpi_GGF_j-1" value="STM32" style="whiteSpace=wrap;html=1;aspect=fixed;fillColor=#0050ef;fontColor=#ffffff;strokeColor=#001DBC;" vertex="1" parent="1">
          <mxGeometry x="385" y="530" width="80" height="80" as="geometry" />
        </mxCell>
        <mxCell id="ui1ufBkpN4PQpi_GGF_j-2" value="Flash Chip" style="whiteSpace=wrap;html=1;aspect=fixed;fillColor=#60a917;fontColor=#ffffff;strokeColor=#2D7600;" vertex="1" parent="1">
          <mxGeometry x="150" y="530" width="80" height="80" as="geometry" />
        </mxCell>
        <mxCell id="ui1ufBkpN4PQpi_GGF_j-7" style="edgeStyle=orthogonalEdgeStyle;rounded=0;orthogonalLoop=1;jettySize=auto;html=1;exitX=0.5;exitY=1;exitDx=0;exitDy=0;entryX=0.5;entryY=0;entryDx=0;entryDy=0;" edge="1" parent="1" source="ui1ufBkpN4PQpi_GGF_j-5" target="ui1ufBkpN4PQpi_GGF_j-6">
          <mxGeometry relative="1" as="geometry" />
        </mxCell>
        <mxCell id="ui1ufBkpN4PQpi_GGF_j-9" value="12V" style="edgeLabel;html=1;align=center;verticalAlign=middle;resizable=0;points=[];" vertex="1" connectable="0" parent="ui1ufBkpN4PQpi_GGF_j-7">
          <mxGeometry x="-0.3333" y="3" relative="1" as="geometry">
            <mxPoint x="-3" y="10" as="offset" />
          </mxGeometry>
        </mxCell>
        <mxCell id="ui1ufBkpN4PQpi_GGF_j-35" style="edgeStyle=orthogonalEdgeStyle;rounded=0;orthogonalLoop=1;jettySize=auto;html=1;exitX=0.25;exitY=1;exitDx=0;exitDy=0;entryX=0.5;entryY=0;entryDx=0;entryDy=0;" edge="1" parent="1" source="ui1ufBkpN4PQpi_GGF_j-5" target="ui1ufBkpN4PQpi_GGF_j-36">
          <mxGeometry relative="1" as="geometry">
            <mxPoint x="280" y="330" as="targetPoint" />
          </mxGeometry>
        </mxCell>
        <mxCell id="ui1ufBkpN4PQpi_GGF_j-37" value="12V" style="edgeLabel;html=1;align=center;verticalAlign=middle;resizable=0;points=[];" vertex="1" connectable="0" parent="ui1ufBkpN4PQpi_GGF_j-35">
          <mxGeometry x="-0.1294" relative="1" as="geometry">
            <mxPoint x="-14" as="offset" />
          </mxGeometry>
        </mxCell>
        <mxCell id="ui1ufBkpN4PQpi_GGF_j-5" value="Car Battery&amp;nbsp;" style="whiteSpace=wrap;html=1;aspect=fixed;fillColor=#a20025;fontColor=#ffffff;strokeColor=#6F0000;" vertex="1" parent="1">
          <mxGeometry x="385" y="140" width="80" height="80" as="geometry" />
        </mxCell>
        <mxCell id="ui1ufBkpN4PQpi_GGF_j-8" style="edgeStyle=orthogonalEdgeStyle;rounded=0;orthogonalLoop=1;jettySize=auto;html=1;exitX=0.5;exitY=1;exitDx=0;exitDy=0;entryX=0.5;entryY=0;entryDx=0;entryDy=0;" edge="1" parent="1" source="ui1ufBkpN4PQpi_GGF_j-6" target="ui1ufBkpN4PQpi_GGF_j-1">
          <mxGeometry relative="1" as="geometry" />
        </mxCell>
        <mxCell id="ui1ufBkpN4PQpi_GGF_j-10" value="3.3V" style="edgeLabel;html=1;align=center;verticalAlign=middle;resizable=0;points=[];" vertex="1" connectable="0" parent="ui1ufBkpN4PQpi_GGF_j-8">
          <mxGeometry x="0.1818" y="2" relative="1" as="geometry">
            <mxPoint x="-2" y="-5" as="offset" />
          </mxGeometry>
        </mxCell>
        <mxCell id="ui1ufBkpN4PQpi_GGF_j-6" value="Buck Converter" style="whiteSpace=wrap;html=1;aspect=fixed;fillColor=#a20025;fontColor=#ffffff;strokeColor=#6F0000;" vertex="1" parent="1">
          <mxGeometry x="385" y="340" width="80" height="80" as="geometry" />
        </mxCell>
        <mxCell id="ui1ufBkpN4PQpi_GGF_j-13" style="edgeStyle=orthogonalEdgeStyle;rounded=0;orthogonalLoop=1;jettySize=auto;html=1;exitX=0;exitY=0.5;exitDx=0;exitDy=0;entryX=1;entryY=0.25;entryDx=0;entryDy=0;" edge="1" parent="1" source="ui1ufBkpN4PQpi_GGF_j-12" target="ui1ufBkpN4PQpi_GGF_j-1">
          <mxGeometry relative="1" as="geometry" />
        </mxCell>
        <mxCell id="ui1ufBkpN4PQpi_GGF_j-14" value="Analog" style="edgeLabel;html=1;align=center;verticalAlign=middle;resizable=0;points=[];" vertex="1" connectable="0" parent="ui1ufBkpN4PQpi_GGF_j-13">
          <mxGeometry x="-0.1484" y="1" relative="1" as="geometry">
            <mxPoint as="offset" />
          </mxGeometry>
        </mxCell>
        <mxCell id="ui1ufBkpN4PQpi_GGF_j-12" value="Amplifier" style="whiteSpace=wrap;html=1;aspect=fixed;fillColor=#6a00ff;fontColor=#ffffff;strokeColor=#3700CC;" vertex="1" parent="1">
          <mxGeometry x="570" y="440" width="80" height="80" as="geometry" />
        </mxCell>
        <mxCell id="ui1ufBkpN4PQpi_GGF_j-16" style="edgeStyle=orthogonalEdgeStyle;rounded=0;orthogonalLoop=1;jettySize=auto;html=1;exitX=0;exitY=0.5;exitDx=0;exitDy=0;entryX=1;entryY=0.5;entryDx=0;entryDy=0;" edge="1" parent="1" source="ui1ufBkpN4PQpi_GGF_j-15" target="ui1ufBkpN4PQpi_GGF_j-12">
          <mxGeometry relative="1" as="geometry">
            <Array as="points">
              <mxPoint x="660" y="480" />
              <mxPoint x="660" y="480" />
            </Array>
          </mxGeometry>
        </mxCell>
        <mxCell id="ui1ufBkpN4PQpi_GGF_j-23" value="Analog" style="edgeLabel;html=1;align=center;verticalAlign=middle;resizable=0;points=[];" vertex="1" connectable="0" parent="ui1ufBkpN4PQpi_GGF_j-16">
          <mxGeometry x="0.1878" y="-1" relative="1" as="geometry">
            <mxPoint x="6" y="1" as="offset" />
          </mxGeometry>
        </mxCell>
        <mxCell id="ui1ufBkpN4PQpi_GGF_j-15" value="Pressure Transducer" style="whiteSpace=wrap;html=1;aspect=fixed;fillColor=#6a00ff;fontColor=#ffffff;strokeColor=#3700CC;" vertex="1" parent="1">
          <mxGeometry x="710" y="440" width="80" height="80" as="geometry" />
        </mxCell>
        <mxCell id="ui1ufBkpN4PQpi_GGF_j-20" style="edgeStyle=orthogonalEdgeStyle;rounded=0;orthogonalLoop=1;jettySize=auto;html=1;exitX=0;exitY=0.5;exitDx=0;exitDy=0;entryX=1;entryY=0.75;entryDx=0;entryDy=0;" edge="1" parent="1" source="ui1ufBkpN4PQpi_GGF_j-17" target="ui1ufBkpN4PQpi_GGF_j-1">
          <mxGeometry relative="1" as="geometry" />
        </mxCell>
        <mxCell id="ui1ufBkpN4PQpi_GGF_j-21" value="Analog" style="edgeLabel;html=1;align=center;verticalAlign=middle;resizable=0;points=[];" vertex="1" connectable="0" parent="ui1ufBkpN4PQpi_GGF_j-20">
          <mxGeometry x="-0.2667" y="3" relative="1" as="geometry">
            <mxPoint x="1" y="-30" as="offset" />
          </mxGeometry>
        </mxCell>
        <mxCell id="ui1ufBkpN4PQpi_GGF_j-17" value="Amplifier" style="whiteSpace=wrap;html=1;aspect=fixed;fillColor=#6a00ff;fontColor=#ffffff;strokeColor=#3700CC;" vertex="1" parent="1">
          <mxGeometry x="570" y="620" width="80" height="80" as="geometry" />
        </mxCell>
        <mxCell id="ui1ufBkpN4PQpi_GGF_j-19" style="edgeStyle=orthogonalEdgeStyle;rounded=0;orthogonalLoop=1;jettySize=auto;html=1;exitX=0;exitY=0.5;exitDx=0;exitDy=0;entryX=1;entryY=0.5;entryDx=0;entryDy=0;" edge="1" parent="1" source="ui1ufBkpN4PQpi_GGF_j-18" target="ui1ufBkpN4PQpi_GGF_j-17">
          <mxGeometry relative="1" as="geometry">
            <Array as="points">
              <mxPoint x="700" y="660" />
              <mxPoint x="700" y="660" />
            </Array>
          </mxGeometry>
        </mxCell>
        <mxCell id="ui1ufBkpN4PQpi_GGF_j-24" value="Analog" style="edgeLabel;html=1;align=center;verticalAlign=middle;resizable=0;points=[];" vertex="1" connectable="0" parent="ui1ufBkpN4PQpi_GGF_j-19">
          <mxGeometry x="0.2014" y="1" relative="1" as="geometry">
            <mxPoint x="6" y="-1" as="offset" />
          </mxGeometry>
        </mxCell>
        <mxCell id="ui1ufBkpN4PQpi_GGF_j-18" value="Load Cell" style="whiteSpace=wrap;html=1;aspect=fixed;fillColor=#6a00ff;fontColor=#ffffff;strokeColor=#3700CC;" vertex="1" parent="1">
          <mxGeometry x="710" y="620" width="80" height="80" as="geometry" />
        </mxCell>
        <mxCell id="ui1ufBkpN4PQpi_GGF_j-26" style="edgeStyle=orthogonalEdgeStyle;rounded=0;orthogonalLoop=1;jettySize=auto;html=1;exitX=0;exitY=0.5;exitDx=0;exitDy=0;entryX=1;entryY=0.5;entryDx=0;entryDy=0;" edge="1" parent="1" source="ui1ufBkpN4PQpi_GGF_j-25" target="ui1ufBkpN4PQpi_GGF_j-1">
          <mxGeometry relative="1" as="geometry" />
        </mxCell>
        <mxCell id="ui1ufBkpN4PQpi_GGF_j-27" value="Analog" style="edgeLabel;html=1;align=center;verticalAlign=middle;resizable=0;points=[];" vertex="1" connectable="0" parent="ui1ufBkpN4PQpi_GGF_j-26">
          <mxGeometry x="-0.2857" relative="1" as="geometry">
            <mxPoint x="-12" as="offset" />
          </mxGeometry>
        </mxCell>
        <mxCell id="ui1ufBkpN4PQpi_GGF_j-25" value="Amplifier" style="whiteSpace=wrap;html=1;aspect=fixed;fillColor=#6a00ff;fontColor=#ffffff;strokeColor=#3700CC;" vertex="1" parent="1">
          <mxGeometry x="570" y="530" width="80" height="80" as="geometry" />
        </mxCell>
        <mxCell id="ui1ufBkpN4PQpi_GGF_j-29" style="edgeStyle=orthogonalEdgeStyle;rounded=0;orthogonalLoop=1;jettySize=auto;html=1;exitX=0;exitY=0.5;exitDx=0;exitDy=0;entryX=1;entryY=0.5;entryDx=0;entryDy=0;" edge="1" parent="1" source="ui1ufBkpN4PQpi_GGF_j-28" target="ui1ufBkpN4PQpi_GGF_j-25">
          <mxGeometry relative="1" as="geometry" />
        </mxCell>
        <mxCell id="ui1ufBkpN4PQpi_GGF_j-30" value="Analog" style="edgeLabel;html=1;align=center;verticalAlign=middle;resizable=0;points=[];" vertex="1" connectable="0" parent="ui1ufBkpN4PQpi_GGF_j-29">
          <mxGeometry x="0.2533" y="1" relative="1" as="geometry">
            <mxPoint x="8" y="-1" as="offset" />
          </mxGeometry>
        </mxCell>
        <mxCell id="ui1ufBkpN4PQpi_GGF_j-28" value="Thermocouples" style="whiteSpace=wrap;html=1;aspect=fixed;fillColor=#6a00ff;fontColor=#ffffff;strokeColor=#3700CC;" vertex="1" parent="1">
          <mxGeometry x="710" y="530" width="80" height="80" as="geometry" />
        </mxCell>
        <mxCell id="ui1ufBkpN4PQpi_GGF_j-32" style="edgeStyle=orthogonalEdgeStyle;rounded=0;orthogonalLoop=1;jettySize=auto;html=1;exitX=0.5;exitY=0;exitDx=0;exitDy=0;entryX=0.5;entryY=1;entryDx=0;entryDy=0;shape=link;strokeColor=default;" edge="1" parent="1" source="ui1ufBkpN4PQpi_GGF_j-31" target="ui1ufBkpN4PQpi_GGF_j-1">
          <mxGeometry relative="1" as="geometry" />
        </mxCell>
        <mxCell id="ui1ufBkpN4PQpi_GGF_j-33" value="UART" style="edgeLabel;html=1;align=center;verticalAlign=middle;resizable=0;points=[];" vertex="1" connectable="0" parent="ui1ufBkpN4PQpi_GGF_j-32">
          <mxGeometry x="-0.2444" y="-4" relative="1" as="geometry">
            <mxPoint x="-4" y="-16" as="offset" />
          </mxGeometry>
        </mxCell>
        <mxCell id="ui1ufBkpN4PQpi_GGF_j-31" value="RF Radio" style="whiteSpace=wrap;html=1;aspect=fixed;fillColor=#76608a;fontColor=#ffffff;strokeColor=#432D57;" vertex="1" parent="1">
          <mxGeometry x="385" y="700" width="80" height="80" as="geometry" />
        </mxCell>
        <mxCell id="ui1ufBkpN4PQpi_GGF_j-36" value="Firing Circuit" style="whiteSpace=wrap;html=1;aspect=fixed;fillColor=#a20025;fontColor=#ffffff;strokeColor=#6F0000;" vertex="1" parent="1">
          <mxGeometry x="230" y="340" width="80" height="80" as="geometry" />
        </mxCell>
      </root>
    </mxGraphModel>
  </diagram>
</mxfile>
